<?xml version="1.0" encoding="UTF-8"?>
<svg id="Capa_1" xmlns="http://www.w3.org/2000/svg" version="1.1" viewBox="0 0 919.34 218.73">
  <!-- Generator: Adobe Illustrator 29.7.1, SVG Export Plug-In . SVG Version: 2.1.1 Build 8)  -->
  <defs>
    <style>
      .st0 {
        fill: #fff;
      }
    </style>
  </defs>
  <path class="st0" d="M51.76,73.34c0-11.92,9.66-21.58,21.58-21.58h166.88c3.65,0,6.45-3.23,5.94-6.84l-5.63-39.76c-.42-2.96-2.95-5.16-5.94-5.16H73.34C32.83,0,0,32.83,0,73.34v44.22c0,3.14,2.42,5.75,5.55,5.98l200.4,15.16v6.69c0,11.92-9.66,21.58-21.58,21.58H6c-3.31,0-6,2.69-6,6v39.76c0,3.31,2.69,6,6,6h178.37c40.5,0,73.34-32.83,73.34-73.34v-44.22c0-3.14-2.42-5.75-5.55-5.98l-200.4-15.16v-6.69Z"/>
  <path class="st0" d="M503.85,0h-112.88c-40.5,0-73.34,32.83-73.34,73.34v72.05c0,40.5,32.83,73.34,73.34,73.34h163.73c3.65,0,6.45-3.23,5.94-6.84l-5.63-39.76c-.42-2.96-2.95-5.16-5.94-5.16h-158.09c-11.92,0-21.58-9.66-21.58-21.58v-10.15h199.17c4.76,0,8.63-3.86,8.63-8.63v-53.28c0-40.5-32.83-73.34-73.34-73.34ZM369.39,87.3v-13.96c0-11.9,9.68-21.58,21.58-21.58h112.88c11.9,0,21.58,9.68,21.58,21.58v13.96h-156.04Z"/>
  <path class="st0" d="M728.12,0h-97.79c-3.31,0-6,2.69-6,6v39.76c0,3.31,2.69,6,6,6h97.79c11.92,0,21.58,9.66,21.58,21.58v139.39c0,3.31,2.69,6,6,6h39.76c3.31,0,6-2.69,6-6V73.34c0-40.5-32.83-73.34-73.34-73.34Z"/>
  <path class="st0" d="M798.58,0c14.42,11.59,27.14,31.43,31.69,51.76h83.08c3.31,0,6-2.69,6-6V6c0-3.31-2.69-6-6-6h-114.76Z"/>
</svg>